<?xml version="1.0" standalone="no"?><!DOCTYPE svg PUBLIC "-//W3C//DTD SVG 1.1//EN" "http://www.w3.org/Graphics/SVG/1.1/DTD/svg11.dtd" ><svg xmlns="http://www.w3.org/2000/svg"><metadata></metadata><defs><font id="1.000;WYUE;MFJiaHei_Noncommercial-Regular" horiz-adv-x="700"><font-face font-family="MF JiaHei (Noncommercial) Regular" font-weight="400" font-stretch="normal" units-per-em="1000" panose-1="0 0 0 0 0 0 0 0 0 0" ascent="880" descent="-120" x-height="0" bbox="1 -493 680 801" underline-thickness="50" underline-position="-75" unicode-range="U+0021-ff1a" /><missing-glyph horiz-adv-x="650"  /><glyph glyph-name="percent" unicode="%" d="M424 783 L185 -199 L110 -187 L350 796 L424 783 ZM471 -120 L347 -120 L317 -91 L317 76 L347 104 L471 104 L501 76 L501 -91 L471 -120 ZM187 500 L63 500 L33 528 L33 695 L63 723 L187 723 L217 695 L217 528 L187 500 ZM96 558 L155 558 L155 665 L96 665 L96 558 ZM380 -61 L439 -61 L439 46 L380 46 L380 -61 Z" /><glyph glyph-name="quotesingle" unicode="&#39;" d="M130 615 L30 615 L30 753 L130 753 L130 615 Z" /><glyph glyph-name="parenleft" unicode="(" d="M149 -199 Q113 -136 89.5 -55 Q66 26 54 116 Q42 206 42 301 Q42 396 54 486 Q66 576 89.5 657 Q113 738 149 801 L219 765 Q186 708 164.5 633 Q143 558 132 474 Q121 390 121.5 301 Q122 212 132.5 128 Q143 44 164.5 -31.5 Q186 -107 219 -164 L149 -199 L149 -199 Z" /><glyph glyph-name="parenright" unicode=")" d="M18 -164 Q50 -107 72 -31.5 Q94 44 104.5 128 Q115 212 115 301 Q115 390 104.5 474 Q94 558 72 633 Q50 708 18 765 L89 801 Q125 738 148.5 657 Q172 576 184 486 Q196 396 196 301 Q196 206 184 116 Q172 26 148.5 -55 Q125 -136 89 -199 L18 -164 Z" /><glyph glyph-name="comma" unicode="," d="M120 -202 L20 -202 L50 -65 L150 -65 L120 -202 Z" /><glyph glyph-name="hyphen" unicode="-" d="M518 341 L518 261 L30 261 L30 341 L518 341 Z" /><glyph glyph-name="period" unicode="." d="M130 -202 L30 -202 L30 -65 L130 -65 L130 -202 Z" /><glyph glyph-name="slash" unicode="/" d="M79 -196 L4 -186 L239 769 L314 758 L79 -196 Z" /><glyph glyph-name="one" unicode="1" d="M274 -183 L18 -183 L18 -103 L100 -103 L100 684 L21 684 L21 764 L145 764 L190 724 L190 -103 L274 -103 L274 -183 Z" /><glyph glyph-name="eight" unicode="8" d="M379 764 L424 724 L424 344 L411 316 L385 293 L416 273 L433 242 L433 -143 L388 -183 L73 -183 L28 -143 L28 242 L45 273 L76 293 L50 316 L37 344 L37 724 L82 764 L379 764 ZM343 -103 L343 224 L307 251 L154 251 L118 224 L118 -103 L343 -103 ZM300 331 L334 361 L334 684 L127 684 L127 361 L161 331 L300 331 Z" /><glyph glyph-name="semicolon" unicode=";" d="M35 543 L35 680 L135 680 L135 543 L35 543 ZM20 -79 L50 59 L150 59 L120 -79 L20 -79 Z" /><glyph glyph-name="less" unicode="&lt;" d="M218 -142 L15 292 L15 310 L218 744 L310 725 L110 301 L310 -124 L218 -142 Z" /><glyph glyph-name="equal" unicode="=" d="M30 448 L519 448 L519 368 L30 368 L30 448 ZM30 233 L519 233 L519 153 L30 153 L30 233 Z" /><glyph glyph-name="greater" unicode="&gt;" d="M15 -124 L215 301 L15 725 L107 744 L310 310 L310 292 L107 -142 L15 -124 Z" /><glyph glyph-name="B" unicode="b" d="M30 -183 L30 764 L351 764 L396 724 L396 344 L382 316 L356 293 L382 273 L399 242 L399 -143 L354 -183 L30 -183 ZM273 251 L120 251 L120 -103 L309 -103 L309 224 L273 251 ZM120 684 L120 331 L271 331 L306 361 L306 684 L120 684 Z" /><glyph glyph-name="C" unicode="c" d="M399 78 L399 -143 L354 -183 L75 -183 L30 -143 L30 724 L75 764 L354 764 L399 724 L399 489 L309 489 L309 684 L120 684 L120 -103 L309 -103 L309 78 L399 78 Z" /><glyph glyph-name="D" unicode="d" d="M30 -183 L30 764 L354 764 L399 724 L399 -143 L354 -183 L30 -183 ZM120 684 L120 -103 L309 -103 L309 684 L120 684 Z" /><glyph glyph-name="E" unicode="e" d="M369 -183 L75 -183 L30 -143 L30 724 L75 764 L369 764 L369 684 L120 684 L120 331 L369 331 L369 251 L120 251 L120 -103 L369 -103 L369 -183 Z" /><glyph glyph-name="H" unicode="h" d="M399 764 L399 -183 L309 -183 L309 245 L120 245 L120 -183 L30 -183 L30 764 L120 764 L120 325 L309 325 L309 764 L399 764 Z" /><glyph glyph-name="I" unicode="i" d="M120 764 L120 -183 L30 -183 L30 764 L120 764 Z" /><glyph glyph-name="L" unicode="l" d="M119 764 L119 -103 L247 -103 L247 -183 L74 -183 L29 -143 L29 764 L119 764 Z" /><glyph glyph-name="M" unicode="m" d="M29 -183 L29 760 L148 768 L284 92 L420 768 L538 760 L538 -183 L449 -183 L449 534 L327 -66 L240 -66 L119 534 L119 -183 L29 -183 Z" /><glyph glyph-name="O" unicode="o" d="M374 -183 L75 -183 L30 -143 L30 724 L75 764 L374 764 L419 724 L419 -143 L374 -183 ZM120 -103 L329 -103 L329 684 L120 684 L120 -103 Z" /><glyph glyph-name="P" unicode="p" d="M344 764 L389 724 L389 243 L344 203 L110 203 L110 -183 L20 -183 L20 764 L344 764 ZM110 684 L110 283 L299 283 L299 684 L110 684 Z" /><glyph glyph-name="R" unicode="r" d="M352 764 L397 724 L397 244 L352 204 L312 204 L366 -103 L415 -103 L415 -183 L328 -183 L283 -149 L222 204 L119 204 L119 -183 L29 -183 L29 764 L352 764 ZM119 684 L119 284 L307 284 L307 684 L119 684 Z" /><glyph glyph-name="T" unicode="t" d="M7 764 L409 764 L409 684 L253 684 L253 -183 L163 -183 L163 684 L7 684 L7 764 Z" /><glyph glyph-name="W" unicode="w" d="M108 770 L196 123 L283 685 L372 685 L460 123 L547 770 L636 760 L508 -193 L419 -194 L328 390 L236 -194 L147 -193 L19 760 L108 770 Z" /><glyph glyph-name="Y" unicode="y" d="M447 753 L273 279 L273 -183 L183 -183 L183 282 L10 753 L96 777 L228 415 L361 777 L447 753 Z" /><glyph glyph-name="a" unicode="a" d="M364 -183 L73 -183 L28 -143 L28 444 L73 484 L332 484 L332 -103 L364 -103 L364 -183 ZM118 -103 L242 -103 L242 404 L118 404 L118 -103 Z" /><glyph glyph-name="b" unicode="b" d="M28 764 L118 764 L118 484 L287 484 L332 444 L332 -143 L287 -183 L28 -183 L28 764 ZM118 404 L118 -103 L242 -103 L242 404 L118 404 Z" /><glyph glyph-name="c" unicode="c" d="M331 10 L331 -143 L286 -183 L72 -183 L28 -143 L28 444 L73 484 L286 484 L331 444 L331 304 L241 304 L241 404 L118 404 L118 -103 L241 -103 L241 10 L331 10 Z" /><glyph glyph-name="d" unicode="d" d="M316 764 L316 -183 L58 -183 L13 -143 L13 444 L58 484 L226 484 L226 764 L316 764 ZM103 -103 L226 -103 L226 404 L103 404 L103 -103 Z" /><glyph glyph-name="e" unicode="e" d="M118 111 L118 -103 L331 -103 L331 -183 L73 -183 L28 -143 L28 444 L73 484 L286 484 L331 444 L331 111 L118 111 ZM118 190 L241 190 L241 404 L118 404 L118 190 Z" /><glyph glyph-name="f" unicode="f" d="M278 404 L175 404 L175 -183 L85 -183 L85 404 L8 404 L8 484 L85 484 L85 725 L130 764 L278 764 L278 685 L175 685 L175 484 L278 484 L278 404 Z" /><glyph glyph-name="g" unicode="g" d="M325 483 L325 -453 L280 -493 L29 -493 L29 -413 L235 -413 L235 -183 L66 -183 L21 -143 L21 443 L66 483 L325 483 ZM111 -103 L235 -103 L235 404 L111 404 L111 -103 Z" /><glyph glyph-name="h" unicode="h" d="M241 -183 L241 404 L118 404 L118 -183 L28 -183 L28 764 L118 764 L118 484 L286 484 L331 444 L331 -183 L241 -183 Z" /><glyph glyph-name="i" unicode="i" d="M118 484 L118 -183 L28 -183 L28 484 L118 484 ZM118 692 L118 555 L28 555 L28 692 L118 692 Z" /><glyph glyph-name="j" unicode="j" d="M188 692 L188 555 L98 555 L98 692 L188 692 ZM188 484 L188 -453 L143 -493 L1 -493 L1 -413 L98 -413 L98 484 L188 484 Z" /><glyph glyph-name="k" unicode="k" d="M332 484 L332 362 L201 166 L332 -37 L332 -192 L242 -192 L242 -63 L118 133 L118 -192 L28 -192 L28 764 L118 764 L118 199 L242 389 L242 484 L332 484 Z" /><glyph glyph-name="l" unicode="l" d="M118 764 L118 -192 L28 -192 L28 764 L118 764 Z" /><glyph glyph-name="m" unicode="m" d="M236 -183 L236 404 L118 404 L118 -183 L28 -183 L28 528 L118 528 L118 484 L260 484 L305 444 L305 484 L492 484 L537 444 L537 -183 L447 -183 L447 404 L326 404 L326 -183 L236 -183 Z" /><glyph glyph-name="n" unicode="n" d="M242 -183 L242 404 L118 404 L118 -183 L28 -183 L28 528 L118 528 L118 484 L287 484 L332 444 L332 -183 L242 -183 Z" /><glyph glyph-name="o" unicode="o" d="M286 -183 L73 -183 L28 -143 L28 444 L73 484 L286 484 L331 444 L331 -143 L286 -183 ZM118 -103 L241 -103 L241 404 L118 404 L118 -103 Z" /><glyph glyph-name="p" unicode="p" d="M286 483 L331 443 L331 -143 L286 -183 L117 -183 L117 -493 L28 -493 L28 483 L286 483 ZM117 404 L117 -103 L241 -103 L241 404 L117 404 Z" /><glyph glyph-name="r" unicode="r" d="M242 339 L242 391 L118 353 L118 -183 L28 -183 L28 490 L118 490 L118 438 L273 485 L332 447 L332 339 L242 339 Z" /><glyph glyph-name="s" unicode="s" d="M241 313 L241 404 L117 404 L117 192 L286 192 L331 152 L331 -143 L286 -183 L72 -183 L27 -143 L27 -12 L117 -12 L117 -103 L241 -103 L241 113 L72 113 L27 152 L27 444 L72 484 L286 484 L331 444 L331 313 L241 313 Z" /><glyph glyph-name="t" unicode="t" d="M4 484 L107 484 L107 717 L197 717 L197 484 L291 484 L291 404 L197 404 L197 -103 L290 -103 L290 -183 L152 -183 L107 -143 L107 404 L4 404 L4 484 Z" /><glyph glyph-name="u" unicode="u" d="M332 484 L332 -103 L364 -103 L364 -183 L73 -183 L28 -143 L28 484 L118 484 L118 -103 L242 -103 L242 484 L332 484 Z" /><glyph glyph-name="v" unicode="v" d="M399 476 L250 -196 L162 -196 L13 476 L102 491 L206 19 L310 491 L399 476 Z" /><glyph glyph-name="w" unicode="w" d="M116 484 L158 -58 L241 431 L329 431 L412 -58 L454 484 L542 472 L480 -194 L371 -195 L285 210 L199 -195 L90 -194 L27 472 L116 484 Z" /><glyph glyph-name="x" unicode="x" d="M403 470 L262 147 L403 -177 L320 -206 L213 37 L106 -206 L23 -177 L164 147 L23 470 L106 499 L213 256 L320 499 L403 470 Z" /><glyph glyph-name="y" unicode="y" d="M109 486 L207 0 L317 486 L406 471 L250 -214 L251 -217 L250 -217 L195 -461 L151 -493 L31 -493 L31 -413 L114 -413 L159 -212 L20 472 L109 486 Z" /><glyph glyph-name="braceleft" unicode="{" d="M241 685 L195 685 L195 349 L186 326 L164 301 L186 275 L195 253 L195 -104 L241 -104 L241 -184 L145 -184 L95 -144 L95 240 L76 262 L3 262 L3 339 L76 339 L95 361 L95 724 L145 764 L241 764 L241 685 Z" /><glyph glyph-name="braceright" unicode="}" d="M21 764 L117 764 L167 724 L167 361 L185 339 L259 339 L259 262 L185 262 L167 240 L167 -144 L117 -184 L21 -184 L21 -104 L67 -104 L67 253 L76 275 L98 301 L76 326 L67 349 L67 685 L21 685 L21 764 Z" /><glyph glyph-name="cid119" unicode="&#x300c;" d="M466 -23 L466 743 L514 781 L640 781 L640 705 L561 705 L561 -23 L466 -23 Z" /><glyph glyph-name="cid120" unicode="&#x300d;" d="M204 623 L204 -143 L156 -181 L30 -181 L30 -105 L109 -105 L109 623 L204 623 Z" /><glyph glyph-name="cid287" unicode="&#xff1a;" d="M129 59 L129 -79 L30 -79 L30 59 L129 59 ZM129 680 L129 543 L30 543 L30 680 L129 680 Z" /><glyph glyph-name="cid1008" unicode="&#x677f;" d="M662 800 L662 731 L616 691 L408 691 L408 560 L619 560 L664 520 L664 133 L599 -7 L649 -119 L677 -119 L677 -199 L586 -199 L549 -115 L510 -199 L420 -199 L420 -119 L449 -119 L501 -7 L439 133 L439 437 L531 437 L531 145 L551 99 L573 146 L573 480 L408 480 L408 -156 L363 -196 L298 -196 L298 -117 L317 -117 L317 731 L363 771 L570 771 L570 800 L662 800 ZM291 581 L204 581 L204 -196 L114 -196 L114 581 L28 581 L28 661 L114 661 L114 800 L204 800 L204 661 L291 661 L291 581 ZM280 526 L289 -196 L230 -196 L220 526 L280 526 ZM100 526 L89 -196 L30 -196 L41 526 L100 526 Z" /><glyph glyph-name="cid1110" unicode="&#x8868;" d="M401 797 L401 727 L665 727 L665 647 L401 647 L401 550 L645 550 L645 470 L401 470 L401 373 L672 373 L672 293 L348 293 L271 161 L320 161 L320 -115 L452 -115 L452 -195 L270 -195 L220 -155 L220 73 L117 -103 L27 -69 L237 293 L29 293 L29 373 L301 373 L301 470 L57 470 L57 550 L301 550 L301 647 L37 647 L37 727 L301 727 L301 797 L401 797 ZM482 252 L532 141 L667 141 L667 61 L569 61 L671 -164 L577 -191 L389 225 L482 252 Z" /><glyph glyph-name="cid1414" unicode="&#x5355;" d="M300 -193 L300 -46 L28 -46 L28 34 L300 34 L300 130 L108 130 L58 170 L58 651 L108 691 L151 691 L122 793 L222 793 L251 691 L449 691 L478 793 L578 793 L549 691 L592 691 L642 651 L642 170 L592 130 L400 130 L400 34 L672 34 L672 -46 L400 -46 L400 -193 L300 -193 ZM542 210 L542 371 L400 371 L400 210 L542 210 ZM158 210 L300 210 L300 371 L158 371 L158 210 ZM158 451 L300 451 L300 611 L158 611 L158 451 ZM542 611 L400 611 L400 451 L542 451 L542 611 Z" /><glyph glyph-name="cid1426" unicode="&#x5f53;" d="M32 419 L300 419 L300 795 L400 795 L400 419 L610 419 L660 379 L660 -156 L610 -196 L32 -196 L32 -116 L560 -116 L560 72 L52 72 L52 152 L560 152 L560 339 L32 339 L32 419 ZM497 487 L564 755 L663 755 L597 487 L497 487 ZM103 487 L37 755 L136 755 L203 487 L103 487 Z" /><glyph glyph-name="cid1445" unicode="&#x7684;" d="M80 704 L134 704 L134 794 L234 794 L234 704 L295 704 L345 664 L345 -154 L295 -194 L80 -194 L30 -154 L30 664 L80 704 ZM460 795 L460 715 L623 715 L673 675 L673 -154 L623 -194 L465 -194 L465 -114 L573 -114 L573 636 L410 636 L360 675 L360 795 L460 795 ZM440 38 L391 497 L486 497 L534 38 L440 38 ZM245 624 L130 624 L130 295 L245 295 L245 624 ZM245 -114 L245 215 L130 215 L130 -114 L245 -114 Z" /><glyph glyph-name="cid1777" unicode="&#x4e2a;" d="M399 558 L399 -193 L300 -193 L300 558 L399 558 ZM19 343 L131 761 L180 793 L519 793 L568 761 L680 343 L582 327 L479 713 L220 713 L117 327 L19 343 Z" /><glyph glyph-name="cid1789" unicode="&#x2f2f;&#x5de5;" d="M672 -191 L28 -191 L28 -111 L300 -111 L300 678 L52 678 L52 757 L648 757 L648 678 L400 678 L400 -111 L672 -111 L672 -191 Z" /><glyph glyph-name="cid1845" unicode="&#x7ba1;" d="M165 56 L579 56 L629 16 L629 -153 L579 -193 L115 -193 L65 -153 L65 312 L115 352 L574 352 L624 312 L624 154 L574 114 L165 114 L165 56 ZM31 373 L31 480 L81 520 L297 520 L297 583 L397 583 L397 520 L613 520 L663 480 L663 373 L563 373 L563 440 L131 440 L131 373 L31 373 ZM479 558 L479 642 L409 642 L359 682 L359 796 L459 796 L459 722 L667 722 L667 642 L579 642 L579 558 L479 558 ZM149 558 L149 642 L79 642 L29 682 L29 796 L129 796 L129 722 L336 722 L336 642 L248 642 L248 558 L149 558 ZM529 -24 L165 -24 L165 -113 L529 -113 L529 -24 ZM165 273 L165 194 L524 194 L524 273 L165 273 Z" /><glyph glyph-name="cid1927" unicode="&#x76d2;" d="M671 -192 L28 -192 L28 -112 L62 -112 L62 168 L112 203 L587 203 L637 168 L637 -112 L671 -112 L671 -192 ZM137 502 L562 502 L612 462 L612 289 L562 250 L137 250 L87 289 L87 462 L137 502 ZM29 572 L111 758 L158 785 L541 785 L588 758 L670 572 L576 546 L506 705 L194 705 L123 546 L29 572 ZM512 422 L187 422 L187 329 L512 329 L512 422 ZM516 557 L183 557 L183 637 L516 637 L516 557 ZM162 -112 L221 -112 L221 133 L162 133 L162 -112 ZM537 133 L478 133 L478 -112 L537 -112 L537 133 ZM321 -112 L378 -112 L378 133 L321 133 L321 -112 Z" /><glyph glyph-name="cid1980" unicode="&#x6237;" d="M619 320 L176 320 L176 -157 L126 -197 L28 -197 L28 -117 L76 -117 L76 679 L126 719 L325 719 L325 796 L425 796 L425 719 L619 719 L669 679 L669 360 L619 320 ZM176 400 L569 400 L569 639 L176 639 L176 400 Z" /><glyph glyph-name="cid1988" unicode="&#x5316;" d="M220 321 L365 321 L365 787 L462 787 L462 321 L571 321 L571 745 L668 745 L668 281 L619 241 L462 241 L462 -113 L672 -113 L672 -193 L413 -193 L365 -153 L365 241 L220 241 L220 321 ZM92 -200 L92 709 L29 709 L29 789 L137 789 L192 749 L192 -200 L92 -200 Z" /><glyph glyph-name="cid2026" unicode="&#x5fbd;" d="M561 800 L561 717 L672 717 L672 637 L659 637 L659 189 L657 184 L607 14 L649 -117 L666 -117 L666 -194 L585 -194 L565 -130 L546 -194 L465 -194 L465 -117 L481 -117 L519 14 L466 184 L465 189 L465 611 L549 611 L549 199 L562 158 L574 199 L574 637 L511 637 L461 677 L461 800 L561 800 ZM440 262 L349 262 L312 156 L357 156 L357 219 L446 219 L446 115 L401 75 L369 75 L369 -159 L319 -199 L249 -199 L249 -119 L269 -119 L269 75 L185 75 L185 156 L213 156 L250 262 L189 262 L189 341 L224 341 L249 422 L181 422 L181 501 L444 501 L444 422 L349 422 L323 341 L440 341 L440 262 ZM58 -199 L58 447 L28 447 L28 527 L101 527 L151 487 L151 -199 L58 -199 ZM355 798 L355 587 L372 587 L372 761 L446 761 L446 553 L409 520 L216 520 L179 553 L179 761 L253 761 L253 587 L270 587 L270 798 L355 798 ZM151 785 L151 620 L101 580 L28 580 L28 659 L58 659 L58 785 L151 785 ZM248 39 L236 -196 L176 -196 L188 39 L248 39 ZM446 39 L458 -196 L399 -196 L386 39 L446 39 Z" /><glyph glyph-name="cid2135" unicode="&#x95f4;" d="M235 583 L465 583 L515 543 L515 19 L465 -21 L235 -21 L185 19 L185 543 L235 583 ZM439 -115 L560 -115 L560 654 L232 654 L232 734 L610 734 L660 694 L660 -155 L610 -195 L439 -195 L439 -115 ZM140 612 L140 -196 L40 -196 L40 612 L140 612 ZM416 503 L284 503 L284 321 L416 321 L416 503 ZM416 59 L416 241 L284 241 L284 59 L416 59 ZM145 798 L145 728 L187 728 L187 648 L95 648 L45 688 L45 798 L145 798 Z" /><glyph glyph-name="cid2149" unicode="&#x7b80;" d="M256 382 L449 382 L499 343 L499 -38 L449 -78 L256 -78 L206 -38 L206 343 L256 382 ZM411 -117 L559 -117 L559 438 L231 438 L231 518 L609 518 L659 478 L659 -157 L609 -197 L411 -197 L411 -117 ZM149 404 L149 -188 L49 -188 L49 404 L149 404 ZM482 564 L482 649 L415 649 L365 689 L365 796 L465 796 L465 729 L670 729 L670 649 L582 649 L582 564 L482 564 ZM152 576 L152 649 L82 649 L32 689 L32 796 L132 796 L132 729 L339 729 L339 649 L251 649 L251 576 L152 576 ZM149 555 L149 513 L191 513 L191 433 L99 433 L49 473 L49 555 L149 555 ZM399 303 L306 303 L306 192 L399 192 L399 303 ZM399 2 L399 112 L306 112 L306 2 L399 2 Z" /><glyph glyph-name="cid2318" unicode="&#x5177;" d="M671 61 L27 61 L27 141 L90 141 L90 756 L140 796 L558 796 L608 756 L608 141 L671 141 L671 61 ZM508 716 L190 716 L190 624 L508 624 L508 716 ZM190 461 L508 461 L508 552 L190 552 L190 461 ZM190 141 L508 141 L508 229 L190 229 L190 141 ZM190 301 L508 301 L508 389 L190 389 L190 301 ZM31 -192 L130 22 L229 22 L130 -192 L31 -192 ZM574 -192 L469 22 L568 22 L673 -192 L574 -192 Z" /><glyph glyph-name="cid2520" unicode="&#x7406;" d="M662 64 L521 64 L521 -112 L672 -112 L672 -191 L269 -191 L269 -112 L421 -112 L421 64 L279 64 L279 143 L421 143 L421 265 L320 265 L273 303 L273 750 L320 788 L619 788 L667 750 L667 303 L619 265 L521 265 L521 143 L662 143 L662 64 ZM250 -151 L29 -151 L29 -71 L89 -71 L89 254 L29 254 L29 333 L89 333 L89 658 L29 658 L29 738 L250 738 L250 658 L188 658 L188 333 L250 333 L250 254 L188 254 L188 -71 L250 -71 L250 -151 ZM373 345 L421 345 L421 488 L373 488 L373 345 ZM373 567 L421 567 L421 708 L373 708 L373 567 ZM567 345 L567 488 L521 488 L521 345 L567 345 ZM567 708 L521 708 L521 567 L567 567 L567 708 Z" /><glyph glyph-name="cid2536" unicode="&#x4f8b;" d="M442 712 L329 712 L329 607 L385 607 L435 568 L435 -155 L385 -195 L229 -195 L229 -115 L338 -115 L338 528 L279 528 L229 568 L229 712 L200 712 L200 792 L442 792 L442 712 ZM75 -196 L75 705 L28 705 L28 785 L125 785 L174 745 L174 -196 L75 -196 ZM671 791 L671 -159 L626 -195 L496 -195 L496 -115 L577 -115 L577 791 L671 791 ZM548 727 L548 -62 L468 -62 L468 727 L548 727 ZM300 449 L313 -7 L228 -7 L216 449 L300 449 Z" /><glyph glyph-name="cid2543" unicode="&#x2f12;&#x529b;" d="M29 -110 L115 -110 L189 566 L29 566 L29 646 L198 646 L211 759 L211 786 L310 786 L310 754 L298 646 L616 646 L665 606 L665 -150 L616 -190 L428 -190 L428 -110 L566 -110 L566 566 L289 566 L211 -154 L161 -190 L29 -190 L29 -110 Z" /><glyph glyph-name="cid2585" unicode="&#x5217;" d="M67 -123 L260 -123 L260 524 L120 524 L75 560 L75 702 L29 702 L29 782 L384 782 L384 702 L175 702 L175 596 L315 596 L360 560 L360 -159 L315 -195 L67 -195 L67 -123 ZM670 794 L670 -159 L625 -195 L462 -195 L462 -115 L570 -115 L570 794 L670 794 ZM516 723 L516 -48 L426 -48 L426 723 L516 723 ZM107 -12 L49 457 L148 457 L205 -12 L107 -12 Z" /><glyph glyph-name="cid2795" unicode="&#x2faf;&#x9762;" d="M95 611 L300 611 L300 702 L28 702 L28 781 L672 781 L672 702 L400 702 L400 611 L605 611 L655 571 L655 -152 L605 -192 L95 -192 L45 -152 L45 571 L95 611 ZM555 531 L492 531 L492 -112 L555 -112 L555 531 ZM145 -112 L208 -112 L208 531 L145 531 L145 -112 ZM308 128 L392 128 L392 290 L308 290 L308 128 ZM308 370 L392 370 L392 531 L308 531 L308 370 ZM308 -112 L392 -112 L392 48 L308 48 L308 -112 Z" /><glyph glyph-name="cid3117" unicode="&#x524d;" d="M37 -194 L37 515 L87 555 L327 555 L377 515 L377 -157 L327 -197 L207 -197 L207 -117 L277 -117 L277 21 L137 21 L137 -194 L37 -194 ZM660 558 L660 -156 L610 -195 L433 -195 L433 -116 L560 -116 L560 558 L660 558 ZM663 603 L29 603 L29 683 L148 683 L104 791 L199 791 L242 683 L443 683 L485 791 L579 791 L537 683 L663 683 L663 603 ZM518 493 L518 -70 L423 -70 L423 493 L518 493 ZM137 100 L277 100 L277 248 L137 248 L137 100 ZM277 475 L137 475 L137 328 L277 328 L277 475 Z" /><glyph glyph-name="cid3400" unicode="&#x65f6;" d="M76 738 L245 738 L294 701 L294 -115 L245 -153 L76 -153 L27 -115 L27 701 L76 738 ZM672 610 L629 610 L629 -156 L581 -194 L426 -194 L426 -114 L529 -114 L529 610 L327 610 L327 690 L529 690 L529 798 L629 798 L629 690 L672 690 L672 610 ZM388 10 L349 514 L445 514 L483 10 L388 10 ZM195 658 L127 658 L127 333 L195 333 L195 658 ZM195 -72 L195 253 L127 253 L127 -72 L195 -72 Z" /><glyph glyph-name="cid3413" unicode="&#x2f70;&#x793a;" d="M213 -114 L299 -114 L299 396 L34 396 L34 476 L663 476 L663 396 L398 396 L398 -154 L349 -194 L213 -194 L213 -114 ZM599 291 L651 -197 L551 -197 L499 291 L599 291 ZM198 291 L146 -197 L46 -197 L98 291 L198 291 ZM611 693 L86 693 L86 773 L611 773 L611 693 Z" /><glyph glyph-name="cid3438" unicode="&#x2fb8;&#x9996;" d="M117 507 L300 507 L300 613 L28 613 L28 693 L144 693 L116 797 L216 797 L243 693 L457 693 L484 797 L584 797 L556 693 L672 693 L672 613 L400 613 L400 507 L583 507 L633 467 L633 -152 L583 -192 L117 -192 L67 -152 L67 467 L117 507 ZM167 94 L533 94 L533 222 L167 222 L167 94 ZM533 -112 L533 14 L167 14 L167 -112 L533 -112 ZM533 427 L167 427 L167 302 L533 302 L533 427 Z" /><glyph glyph-name="cid3876" unicode="&#x620f;" d="M27 -113 L59 -113 L122 39 L44 226 L44 648 L143 648 L143 238 L175 164 L205 237 L205 695 L41 695 L41 775 L255 775 L305 735 L305 226 L229 40 L295 -113 L328 -113 L328 -193 L221 -193 L176 -88 L134 -193 L27 -193 L27 -113 ZM669 362 L669 97 L625 59 L525 59 L525 -118 L671 -118 L671 -197 L475 -197 L425 -158 L425 59 L321 59 L321 135 L425 135 L425 497 L330 497 L330 577 L425 577 L425 799 L525 799 L525 577 L671 577 L671 497 L525 497 L525 135 L580 135 L580 362 L669 362 ZM671 789 L671 631 L581 631 L581 789 L671 789 Z" /><glyph glyph-name="cid4154" unicode="&#x9875;" d="M60 70 L60 571 L110 611 L300 611 L300 689 L28 689 L28 769 L672 769 L672 689 L400 689 L400 611 L590 611 L640 571 L640 70 L540 70 L540 531 L160 531 L160 70 L60 70 ZM350 46 L109 -192 L31 -142 L300 123 L300 463 L400 463 L400 123 L669 -142 L591 -192 L350 46 Z" /><glyph glyph-name="cid4162" unicode="&#x2f00;&#x4e00;" d="M672 337 L28 337 L28 417 L672 417 L672 337 Z" /><glyph glyph-name="cid4264" unicode="&#x2f64;&#x7528;" d="M303 -197 L303 110 L164 110 L164 -157 L114 -197 L33 -197 L33 -117 L65 -117 L65 750 L114 790 L591 790 L641 750 L641 -157 L591 -197 L469 -197 L469 -117 L541 -117 L541 110 L403 110 L403 -197 L303 -197 ZM164 490 L303 490 L303 710 L164 710 L164 490 ZM164 190 L303 190 L303 410 L164 410 L164 190 ZM541 710 L403 710 L403 490 L541 490 L541 710 ZM403 190 L541 190 L541 410 L403 410 L403 190 Z" /><glyph glyph-name="cid4275" unicode="&#x6e38;" d="M426 623 L296 623 L296 497 L379 497 L427 458 L427 -159 L379 -199 L310 -199 L310 -118 L329 -118 L329 418 L296 418 L296 -159 L247 -199 L183 -199 L183 -118 L198 -118 L198 623 L183 623 L183 703 L256 703 L256 793 L353 793 L353 703 L426 703 L426 623 ZM671 168 L610 168 L610 -159 L563 -200 L465 -200 L465 -118 L516 -118 L516 168 L445 168 L445 248 L522 248 L569 478 L450 478 L450 558 L624 558 L670 512 L617 248 L671 248 L671 168 ZM26 -201 L26 179 L76 223 L172 223 L172 143 L125 143 L125 -201 L26 -201 ZM536 796 L536 700 L675 700 L675 621 L487 621 L438 660 L438 796 L536 796 ZM125 509 L125 375 L172 375 L172 295 L76 295 L26 340 L26 509 L125 509 ZM125 783 L125 649 L172 649 L172 569 L76 569 L26 614 L26 783 L125 783 Z" /><glyph glyph-name="cid4451" unicode="&#x7ae0;" d="M669 -86 L398 -86 L398 -191 L299 -191 L299 -86 L28 -86 L28 -7 L299 -7 L299 58 L117 58 L68 98 L68 385 L117 425 L580 425 L629 385 L629 98 L580 58 L398 58 L398 -7 L669 -7 L669 -86 ZM669 469 L28 469 L28 549 L149 549 L132 641 L231 641 L248 549 L449 549 L466 641 L565 641 L548 549 L669 549 L669 469 ZM651 668 L46 668 L46 747 L299 747 L299 800 L398 800 L398 747 L651 747 L651 668 ZM530 137 L530 202 L167 202 L167 137 L530 137 ZM530 345 L167 345 L167 281 L530 281 L530 345 Z" /><glyph glyph-name="cid4601" unicode="&#x52a9;" d="M343 -190 L26 -190 L26 -110 L43 -110 L43 735 L92 775 L277 775 L327 735 L327 -110 L343 -110 L343 -190 ZM513 794 L510 691 L620 691 L670 651 L670 -155 L620 -195 L521 -195 L521 -115 L570 -115 L570 611 L508 611 L489 -155 L439 -195 L362 -195 L362 -115 L392 -115 L409 611 L357 611 L357 691 L411 691 L414 796 L513 794 ZM142 -110 L227 -110 L227 124 L142 124 L142 -110 ZM142 204 L227 204 L227 417 L142 417 L142 204 ZM227 696 L142 696 L142 497 L227 497 L227 696 Z" /><glyph glyph-name="cid4656" unicode="&#x2f26;&#x5b50;" d="M672 269 L412 269 L412 -150 L362 -190 L189 -190 L189 -110 L313 -110 L313 269 L28 269 L28 349 L313 349 L313 404 L320 425 L531 679 L61 679 L61 759 L622 759 L664 698 L412 392 L412 349 L672 349 L672 269 Z" /><glyph glyph-name="quotedbl" unicode="&quot;" d="M119 753 L119 615 L30 615 L30 753 L119 753 ZM240 753 L240 615 L150 615 L150 753 L240 753 Z" /><glyph glyph-name="exclam" unicode="!" d="M124 -91 L124 -200 L29 -200 L29 -91 L124 -91 ZM124 789 L124 21 L29 21 L29 789 L124 789 Z" /></font>
</defs>
</svg>
